<svg width="250" height="250" viewBox="0 0 250 250" fill="none" xmlns="http://www.w3.org/2000/svg">
<path d="M80.7335 48.7498C79.9558 49.5403 79.3655 50.4931 78.8725 51.5377L78.8169 51.4812L0.930412 229.809L1.0068 229.887C-0.437602 232.731 1.97899 238.519 6.93023 243.558C11.8815 248.591 17.5757 251.047 20.3743 249.579L20.4437 249.649L195.897 170.48L195.841 170.416C196.862 169.922 197.799 169.322 198.584 168.517C209.431 157.493 191.841 121.744 159.308 88.67C126.76 55.5961 91.5874 37.7251 80.7335 48.7498Z" fill="#DD2E44"/>
<path d="M90.2749 80.5952L2.88868 225.327L0.930412 229.809L1.0068 229.887C-0.437602 232.731 1.97899 238.519 6.93023 243.558C8.54129 245.195 10.2148 246.438 11.8537 247.489L118.052 115.885L90.2749 80.5952Z" fill="#EA596E"/>
<path d="M159.801 88.1194C192.23 121.095 210.237 156.243 200.001 166.633C189.772 177.036 155.19 158.742 122.739 125.781C90.3029 92.806 72.3035 57.6429 82.5323 47.2464C92.7681 36.8499 127.35 55.1443 159.801 88.1194Z" fill="#A0041E"/>
<path d="M129.093 91.952C127.711 93.0883 125.906 93.6812 123.996 93.4694C117.968 92.806 112.899 90.6744 109.351 87.3078C105.594 83.7435 103.74 78.9581 104.247 74.1657C105.135 65.7525 113.441 58.0311 127.6 59.5838C133.107 60.1838 135.565 58.384 135.648 57.5229C135.746 56.6689 133.725 54.375 128.218 53.768C122.19 53.1046 117.121 50.973 113.566 47.6064C109.809 44.0421 107.948 39.2567 108.462 34.4643C109.364 26.0512 117.663 18.3297 131.808 19.8895C135.822 20.3271 137.94 19.4872 138.836 18.9437C139.551 18.4991 139.836 18.0756 139.863 17.8286C139.947 16.9745 137.954 14.6807 132.433 14.0737C128.621 13.6502 125.857 10.1777 126.281 6.29574C126.69 2.42088 130.1 -0.381152 133.926 0.0423294C148.072 1.58804 154.571 10.9258 153.676 19.346C152.773 27.7733 144.474 35.4807 130.315 33.935C126.301 33.4903 124.204 34.3373 123.301 34.8807C122.586 35.3183 122.295 35.7489 122.267 35.9889C122.177 36.8499 124.183 39.1367 129.704 39.7437C143.849 41.2965 150.349 50.6272 149.453 59.0474C148.558 67.4606 140.259 75.1821 126.107 73.6223C122.093 73.1847 119.982 74.0316 119.079 74.568C118.357 75.0197 118.079 75.4432 118.052 75.6832C117.961 76.5372 119.968 78.8311 125.482 79.4381C129.287 79.8615 132.058 83.3411 131.635 87.216C131.44 89.1499 130.475 90.8227 129.093 91.952Z" fill="#AA8DD8"/>
<path d="M212.917 157.225C226.618 153.294 236.069 159.505 238.319 167.657C240.569 175.802 235.694 186.113 222 190.031C216.653 191.555 215.049 194.152 215.264 194.978C215.5 195.811 218.216 197.18 223.549 195.649C237.243 191.732 246.694 197.943 248.944 206.088C251.208 214.24 246.319 224.537 232.618 228.462C227.278 229.986 225.667 232.59 225.903 233.416C226.132 234.242 228.84 235.611 234.18 234.087C237.861 233.035 241.708 235.216 242.743 238.964C243.77 242.719 241.625 246.615 237.93 247.673C224.243 251.591 214.785 245.394 212.521 237.235C210.271 229.09 215.153 218.792 228.861 214.868C234.208 213.336 235.812 210.746 235.576 209.913C235.354 209.087 232.646 207.711 227.313 209.235C213.605 213.16 204.161 206.963 201.904 198.797C199.647 190.652 204.529 180.354 218.23 176.423C223.563 174.905 225.167 172.294 224.945 171.475C224.709 170.642 222.007 169.273 216.667 170.797C212.973 171.856 209.147 169.668 208.105 165.92C207.07 162.18 209.223 158.284 212.917 157.225Z" fill="#77B255"/>
<path d="M159.724 138.19C157.682 138.19 155.669 137.28 154.294 135.543C151.898 132.494 152.391 128.055 155.377 125.62C156.891 124.385 193.001 95.5598 244.034 102.978C247.832 103.528 250.471 107.1 249.93 110.96C249.388 114.814 245.902 117.524 242.069 116.946C196.98 110.438 164.384 136.383 164.064 136.645C162.772 137.689 161.245 138.19 159.724 138.19Z" fill="#AA8DD8"/>
<path d="M39.9568 108.828C39.2971 108.828 38.6235 108.729 37.9568 108.532C34.2833 107.409 32.2001 103.478 33.3042 99.7443C41.172 73.1144 48.3037 30.618 39.5401 19.5369C38.561 18.2806 37.0819 17.0454 33.6931 17.3066C27.1794 17.8148 27.7974 31.7826 27.8044 31.9237C28.096 35.8127 25.2211 39.2006 21.4018 39.49C17.52 39.7299 14.2423 36.8644 13.9576 32.9754C13.2423 23.2424 16.2214 4.49626 32.6514 3.23288C39.9846 2.66823 46.0746 5.25853 50.3731 10.6932C66.8379 31.5214 50.1231 91.9029 46.6093 103.803C45.7066 106.859 42.9428 108.828 39.9568 108.828Z" fill="#77B255"/>
<path d="M177.078 73.5369C182.831 73.5369 187.494 68.7969 187.494 62.9498C187.494 57.1028 182.831 52.3628 177.078 52.3628C171.325 52.3628 166.662 57.1028 166.662 62.9498C166.662 68.7969 171.325 73.5369 177.078 73.5369Z" fill="#5C913B"/>
<path d="M13.8885 137.059C21.5588 137.059 27.7769 130.74 27.7769 122.943C27.7769 115.147 21.5588 108.827 13.8885 108.827C6.21808 108.827 0 115.147 0 122.943C0 130.74 6.21808 137.059 13.8885 137.059Z" fill="#9266CC"/>
<path d="M225.687 144.117C231.44 144.117 236.104 139.377 236.104 133.53C236.104 127.683 231.44 122.943 225.687 122.943C219.935 122.943 215.271 127.683 215.271 133.53C215.271 139.377 219.935 144.117 225.687 144.117Z" fill="#5C913B"/>
<path d="M163.189 228.814C168.942 228.814 173.606 224.074 173.606 218.227C173.606 212.38 168.942 207.64 163.189 207.64C157.437 207.64 152.773 212.38 152.773 218.227C152.773 224.074 157.437 228.814 163.189 228.814Z" fill="#5C913B"/>
<path d="M194.439 38.2472C202.109 38.2472 208.327 31.9273 208.327 24.1312C208.327 16.3351 202.109 10.0151 194.439 10.0151C186.768 10.0151 180.55 16.3351 180.55 24.1312C180.55 31.9273 186.768 38.2472 194.439 38.2472Z" fill="#FFCC4D"/>
<path d="M225.687 66.479C231.44 66.479 236.104 61.739 236.104 55.892C236.104 50.0449 231.44 45.3049 225.687 45.3049C219.935 45.3049 215.271 50.0449 215.271 55.892C215.271 61.739 219.935 66.479 225.687 66.479Z" fill="#FFCC4D"/>
<path d="M204.855 94.7112C210.608 94.7112 215.271 89.9712 215.271 84.1241C215.271 78.2771 210.608 73.5371 204.855 73.5371C199.102 73.5371 194.438 78.2771 194.438 84.1241C194.438 89.9712 199.102 94.7112 204.855 94.7112Z" fill="#FFCC4D"/>
<path d="M52.0816 172.35C57.8344 172.35 62.498 167.61 62.498 161.763C62.498 155.916 57.8344 151.176 52.0816 151.176C46.3288 151.176 41.6653 155.916 41.6653 161.763C41.6653 167.61 46.3288 172.35 52.0816 172.35Z" fill="#FFCC4D"/>
</svg>
